<svg xmlns="http://www.w3.org/2000/svg" xmlns:xlink="http://www.w3.org/1999/xlink" viewBox="0 0 18.511 18.511"><defs><style>.a,.b,.c,.g,.h{fill:none;}.b,.c,.g,.h{stroke:#636363;stroke-miterlimit:10;}.b{clip-rule:evenodd;}.d{clip-path:url(#a);}.e{clip-path:url(#b);}.f{clip-path:url(#c);}.g{stroke-linecap:square;}.h{fill-rule:evenodd;}.i{clip-path:url(#e);}.j{clip-path:url(#f);}</style><clipPath id="a" transform="translate(0.876 0.876)"><path class="a" d="M11.482,9.69l4.593,4.593a1.313,1.313,0,1,1-1.86,1.854L9.606,11.529"/></clipPath><clipPath id="b" transform="translate(0.876 0.876)"><path class="b" d="M11.482,9.69l4.593,4.593a1.313,1.313,0,1,1-1.86,1.854L9.606,11.529"/></clipPath><clipPath id="c" transform="translate(0.876 0.876)"><rect class="c" x="-0.376" y="-0.376" width="17.511" height="17.511"/></clipPath><clipPath id="e" transform="translate(0.876 0.876)"><circle class="a" cx="6.629" cy="6.629" r="6.129"/></clipPath><clipPath id="f" transform="translate(0.876 0.876)"><circle class="c" cx="6.629" cy="6.629" r="6.129"/></clipPath></defs><title>glass</title><g class="e"><g class="f"><path class="g" d="M11.482,9.69l4.593,4.593a1.313,1.313,0,1,1-1.86,1.854L9.606,11.529" transform="translate(0.876 0.876)"/></g><rect class="c" x="0.5" y="0.5" width="17.511" height="17.511"/></g><path class="h" d="M11.482,9.69l4.593,4.593a1.313,1.313,0,1,1-1.86,1.854L9.606,11.529" transform="translate(0.876 0.876)"/><g class="j"><g class="f"><circle class="g" cx="7.504" cy="7.504" r="6.129"/></g><rect class="c" x="0.5" y="0.5" width="17.511" height="17.511"/></g><circle class="c" cx="7.504" cy="7.504" r="6.129"/></svg>